<?xml version="1.0" standalone="no"?>
<!DOCTYPE svg PUBLIC "-//W3C//DTD SVG 20010904//EN"
 "http://www.w3.org/TR/2001/REC-SVG-20010904/DTD/svg10.dtd">
<svg version="1.0" xmlns="http://www.w3.org/2000/svg"
 width="588.000000pt" height="444.000000pt" viewBox="0 0 588.000000 444.000000"
 preserveAspectRatio="xMidYMid meet">

<g transform="translate(0.000000,444.000000) scale(0.100000,-0.100000)"
fill="#000000" stroke="none">
<path d="M1730 4232 c-52 -8 -69 -54 -27 -73 13 -6 27 -20 32 -32 6 -12 18
-23 28 -25 32 -6 47 17 47 73 0 50 -1 53 -27 56 -16 2 -39 3 -53 1z"/>
<path d="M4192 4218 c-15 -15 -16 -45 -2 -53 6 -4 8 -15 5 -25 -5 -17 17 -50
34 -50 10 0 35 29 50 57 15 30 6 47 -35 66 -41 20 -37 20 -52 5z"/>
<path d="M3970 4205 c-24 -29 20 -135 56 -135 26 0 93 39 104 61 17 30 -11 69
-50 69 -16 0 -32 5 -35 10 -9 15 -61 12 -75 -5z"/>
<path d="M1895 4168 c-19 -23 -26 -40 -23 -60 4 -24 0 -32 -23 -44 -49 -25
-65 -87 -33 -132 17 -25 30 -27 49 -9 7 6 56 46 108 87 l94 74 -10 34 c-26 84
-111 111 -162 50z"/>
<path d="M3701 4175 c-30 -39 -12 -95 30 -95 11 0 23 -10 29 -24 11 -31 47
-56 69 -49 27 10 51 35 51 54 0 15 -137 139 -153 139 -3 0 -15 -11 -26 -25z"/>
<path d="M3776 4182 c12 -9 40 -32 63 -50 l41 -34 0 29 c0 66 -7 73 -69 73
-55 0 -55 -1 -35 -18z"/>
<path d="M4347 4162 c-21 -22 -22 -75 -3 -91 10 -9 26 -1 71 36 l58 48 -29 12
c-42 18 -78 16 -97 -5z"/>
<path d="M4428 4097 c-32 -23 -61 -52 -64 -64 -10 -37 4 -70 34 -82 46 -19 78
2 112 75 17 34 30 66 30 72 0 8 -43 43 -52 42 -2 0 -29 -20 -60 -43z"/>
<path d="M1320 4116 c-69 -26 -138 -66 -159 -92 -29 -37 -27 -85 6 -124 25
-30 30 -32 79 -28 47 4 55 2 79 -24 21 -22 35 -28 70 -28 36 0 47 5 70 32 23
28 26 38 21 75 -6 49 -30 98 -75 161 -34 46 -39 47 -91 28z"/>
<path d="M2199 4092 c-61 -62 -64 -132 -8 -197 29 -33 30 -35 15 -64 -23 -44
-20 -117 5 -152 37 -52 110 -73 172 -50 51 20 139 131 202 254 l20 39 -76 72
c-94 89 -178 136 -244 136 -42 0 -52 -5 -86 -38z"/>
<path d="M3497 4089 c-11 -15 -13 -29 -7 -50 8 -28 46 -89 56 -89 13 0 81 33
96 47 37 34 5 98 -42 86 -11 -3 -27 2 -35 11 -22 22 -51 20 -68 -5z"/>
<path d="M1600 4083 c0 -5 30 -33 67 -63 l66 -53 -6 53 c-4 29 -8 54 -9 55
-10 8 -118 15 -118 8z"/>
<path d="M1536 4061 c-11 -12 -16 -31 -14 -53 2 -26 10 -37 37 -50 18 -9 39
-27 45 -40 6 -12 23 -29 38 -37 25 -14 29 -14 55 5 50 37 41 62 -43 127 -92
71 -96 73 -118 48z"/>
<path d="M1998 4008 c-36 -29 -81 -66 -99 -81 l-34 -29 50 5 c28 2 76 14 108
26 57 22 57 23 57 64 0 72 -10 74 -82 15z"/>
<path d="M4583 4048 c-12 -6 -27 -24 -34 -41 -11 -27 -10 -35 9 -70 15 -28 19
-44 12 -51 -5 -5 -10 -27 -10 -47 0 -29 6 -43 26 -58 56 -44 118 -13 184 89
36 56 34 66 -29 123 -69 63 -112 77 -158 55z"/>
<path d="M4192 4038 c-6 -6 -12 -20 -12 -29 0 -9 -12 -24 -26 -33 -18 -13 -24
-24 -22 -43 2 -15 8 -28 13 -30 6 -2 39 20 73 48 60 48 62 52 49 72 -17 25
-57 33 -75 15z"/>
<path d="M3966 4032 c5 -4 32 -25 59 -46 l50 -38 -50 46 c-27 25 -54 46 -59
46 -6 0 -6 -3 0 -8z"/>
<path d="M3868 3980 c-89 -79 -99 -151 -27 -194 29 -17 33 -17 74 -2 35 14 47
15 63 5 16 -10 27 -5 80 37 43 34 58 52 53 62 -11 19 -163 141 -177 142 -5 0
-35 -23 -66 -50z"/>
<path d="M3226 3979 c-26 -20 -97 -153 -95 -180 1 -29 149 -119 196 -119 14 0
37 13 54 29 38 39 40 90 4 123 -22 21 -24 28 -15 56 24 86 -73 147 -144 91z"/>
<path d="M4216 3930 l-48 -40 30 0 c56 0 82 16 82 50 0 16 -3 30 -8 30 -4 0
-29 -18 -56 -40z"/>
<path d="M3480 3895 c-7 -8 -10 -29 -8 -47 3 -18 1 -43 -5 -55 -8 -18 -6 -27
8 -43 27 -30 57 -24 99 19 45 46 43 64 -10 110 -38 34 -65 39 -84 16z"/>
<path d="M969 3881 c-18 -14 -21 -24 -15 -52 3 -19 17 -47 29 -63 26 -33 47
-32 105 4 55 34 37 111 -23 96 -14 -4 -25 -3 -25 2 0 5 -11 14 -24 20 -20 9
-29 8 -47 -7z"/>
<path d="M4240 3872 c-19 -11 -34 -22 -33 -26 3 -7 72 -63 198 -161 50 -38 93
-73 96 -78 11 -15 19 22 19 81 0 109 -75 189 -186 198 -46 4 -67 1 -94 -14z"/>
<path d="M4842 3853 c-4 -10 -8 -38 -8 -63 1 -38 4 -45 23 -48 13 -2 34 8 54
26 l33 30 -27 36 c-30 39 -61 47 -75 19z"/>
<path d="M2620 3840 c-33 -33 -20 -93 34 -157 l27 -32 75 61 c41 33 74 66 74
73 0 24 -38 48 -69 42 -21 -4 -33 -1 -46 13 -23 26 -70 25 -95 0z"/>
<path d="M4066 3810 c-45 -38 -43 -55 5 -30 15 9 57 70 47 70 -2 0 -25 -18
-52 -40z"/>
<path d="M1772 3819 c-13 -5 -67 -44 -121 -87 -53 -42 -134 -106 -180 -142
-46 -36 -92 -72 -103 -80 -24 -19 -17 -40 25 -71 25 -19 48 -24 105 -27 70 -4
73 -5 87 -36 32 -70 96 -116 164 -116 58 0 131 43 158 92 40 74 8 260 -72 417
-29 59 -33 61 -63 50z"/>
<path d="M4163 3806 c-10 -13 -25 -37 -34 -54 -16 -28 -19 -29 -59 -22 -54 10
-98 -1 -151 -36 -61 -41 -84 -85 -83 -160 1 -93 50 -154 165 -207 56 -26 237
-67 308 -69 l63 -3 30 54 c33 60 80 175 96 234 l11 37 -157 125 c-86 69 -160
125 -164 125 -3 0 -15 -11 -25 -24z"/>
<path d="M1660 3813 c-64 -10 -186 -46 -221 -63 -86 -44 -128 -118 -114 -201
4 -22 9 -39 12 -39 4 0 46 32 164 125 20 17 75 59 120 95 46 36 90 70 99 77
13 11 11 12 -10 11 -14 0 -36 -3 -50 -5z"/>
<path d="M3657 3790 c-9 -11 -17 -33 -17 -49 0 -20 -6 -32 -19 -36 -11 -3 -24
-20 -30 -37 -13 -38 6 -74 44 -84 23 -6 114 17 145 36 31 19 -6 169 -45 184
-31 11 -60 6 -78 -14z"/>
<path d="M1960 3795 c0 -9 163 -135 168 -130 7 7 4 67 -4 108 -6 27 -6 27 -85
27 -43 0 -79 -2 -79 -5z"/>
<path d="M1924 3756 c-10 -40 -1 -60 35 -78 18 -9 42 -31 52 -48 11 -17 26
-33 34 -36 23 -9 63 4 74 24 8 15 -5 29 -84 90 -52 40 -96 72 -99 72 -3 0 -8
-11 -12 -24z"/>
<path d="M3010 3753 c-29 -10 -50 -36 -50 -61 0 -33 34 -103 63 -130 l23 -22
65 32 c79 41 99 73 72 118 -14 25 -24 30 -55 30 -20 0 -52 8 -70 19 -18 10
-40 16 -48 14z"/>
<path d="M2815 3739 c-5 -6 -26 -23 -45 -40 -34 -29 -34 -30 -5 -15 29 14 75
52 75 61 0 8 -14 5 -25 -6z"/>
<path d="M890 3719 c59 -47 80 -60 80 -49 0 21 -58 70 -82 70 l-23 0 25 -21z"/>
<path d="M1063 3730 c-60 -24 -49 -106 22 -164 l44 -37 38 16 c49 21 93 63 93
90 0 11 -7 31 -16 43 -13 19 -24 23 -53 21 -27 -2 -46 3 -66 19 -31 24 -31 24
-62 12z"/>
<path d="M795 3683 c-19 -27 -44 -70 -54 -98 l-20 -50 41 -36 c53 -48 117 -79
161 -79 50 0 91 49 83 99 -3 20 -15 43 -27 52 -14 10 -20 24 -17 42 2 22 -7
35 -52 72 -30 25 -60 45 -67 45 -7 0 -29 -21 -48 -47z"/>
<path d="M4663 3703 c-3 -10 -15 -25 -26 -34 -16 -13 -18 -19 -7 -38 8 -17 18
-21 33 -17 12 3 30 6 40 6 13 0 17 8 17 34 0 19 -3 41 -6 50 -8 21 -43 20 -51
-1z"/>
<path d="M4792 3704 c-12 -8 -22 -25 -22 -38 0 -25 49 -106 64 -106 22 0 97
43 107 62 15 27 -14 70 -44 66 -12 -1 -33 5 -47 15 -30 21 -30 21 -58 1z"/>
<path d="M2850 3678 c-6 -13 -16 -31 -22 -40 -27 -38 21 -69 75 -49 29 11 35
39 17 85 -13 34 -56 36 -70 4z"/>
<path d="M3394 3644 c-19 -19 -34 -38 -34 -42 1 -9 151 -129 172 -137 17 -7
31 25 43 95 7 43 -22 96 -61 110 -50 20 -85 12 -120 -26z"/>
<path d="M2460 3616 c-40 -10 -160 -80 -160 -93 0 -7 39 -39 77 -64 l33 -20
37 28 c21 15 59 45 86 67 l47 39 -21 23 c-28 29 -46 33 -99 20z"/>
<path d="M5007 3612 c-10 -10 -17 -29 -17 -41 0 -13 -13 -36 -30 -51 -37 -34
-38 -63 -4 -96 21 -22 31 -25 62 -19 20 4 56 15 80 25 47 21 52 39 31 115 -21
76 -83 110 -122 67z"/>
<path d="M3270 3603 c-30 -11 -60 -47 -66 -81 -14 -74 50 -131 186 -167 51
-14 54 -13 87 12 19 14 39 35 45 46 12 23 -3 39 -139 142 -70 54 -82 59 -113
48z"/>
<path d="M4595 3582 c-11 -2 -24 -8 -29 -12 -9 -9 139 -130 158 -130 6 1 31
18 55 40 l45 39 -29 11 c-16 6 -42 8 -58 4 -22 -5 -35 -1 -55 19 -29 26 -56
35 -87 29z"/>
<path d="M2672 3557 c-28 -29 -32 -66 -10 -81 14 -8 23 -8 38 1 10 7 27 10 36
6 24 -9 46 24 33 48 -8 15 -57 49 -72 49 -2 0 -13 -10 -25 -23z"/>
<path d="M2519 3503 c-84 -65 -89 -69 -89 -79 0 -6 22 -26 50 -47 l50 -37 6
25 c3 14 3 37 0 51 -6 21 -1 33 18 53 22 23 46 81 33 81 -3 0 -33 -21 -68 -47z"/>
<path d="M4542 3538 c-19 -19 -14 -75 13 -126 42 -81 37 -79 99 -32 31 24 55
44 54 45 -2 1 -30 24 -63 50 -33 26 -67 54 -76 61 -12 11 -18 11 -27 2z"/>
<path d="M2065 3525 c-92 -24 -123 -98 -66 -156 19 -19 40 -29 59 -29 24 0 32
-6 42 -31 8 -19 26 -37 44 -44 28 -12 33 -11 79 23 48 37 48 37 43 87 -2 28
-12 76 -21 108 l-16 57 -57 -1 c-31 0 -79 -6 -107 -14z"/>
<path d="M4787 3465 l-49 -37 23 -24 c13 -14 32 -24 44 -22 28 4 48 50 38 88
l-8 31 -48 -36z"/>
<path d="M1096 3459 c-14 -17 -26 -39 -26 -48 0 -21 37 -71 52 -71 6 0 33 19
60 42 l50 42 -38 33 c-48 41 -65 41 -98 2z"/>
<path d="M2315 3469 c4 -13 14 -37 22 -52 14 -28 15 -28 34 -11 10 9 19 18 19
19 0 1 -18 17 -41 35 -39 31 -41 31 -34 9z"/>
<path d="M1219 3460 c25 -21 41 -26 41 -12 0 9 -44 32 -58 32 -4 -1 4 -10 17
-20z"/>
<path d="M3001 3452 c-23 -23 -35 -27 -67 -24 -67 6 -113 -58 -83 -115 16 -29
81 -70 145 -89 44 -13 47 -13 65 9 34 40 71 126 71 164 0 28 -7 43 -27 60 -35
31 -70 29 -104 -5z"/>
<path d="M3695 3463 c-16 -8 -42 -27 -57 -40 l-26 -25 56 -47 c82 -66 129
-101 140 -101 19 0 42 38 42 71 0 39 -16 67 -71 122 -42 42 -43 42 -84 20z"/>
<path d="M670 3430 c-11 -11 -20 -32 -20 -46 0 -16 -12 -37 -31 -55 -25 -24
-30 -34 -24 -56 3 -15 14 -33 23 -40 23 -18 99 -10 150 16 l39 20 -9 53 c-20
112 -77 159 -128 108z"/>
<path d="M1266 3431 c-7 -11 59 -63 68 -54 13 13 5 29 -23 46 -33 20 -38 20
-45 8z"/>
<path d="M2595 3396 c-14 -14 -25 -31 -25 -39 0 -23 40 -67 60 -67 11 0 22
-11 28 -30 14 -39 53 -57 87 -42 37 17 48 56 38 132 l-8 65 -78 3 c-71 3 -79
1 -102 -22z"/>
<path d="M1189 3368 c-66 -52 -69 -56 -69 -91 0 -60 77 -97 128 -61 23 16 72
103 72 128 0 14 -54 66 -69 66 -5 0 -33 -19 -62 -42z"/>
<path d="M2379 3391 l-24 -19 29 -31 c23 -23 38 -31 65 -31 34 0 71 14 61 23
-3 2 -26 20 -51 40 -25 20 -48 37 -51 37 -3 0 -16 -9 -29 -19z"/>
<path d="M4665 3369 c-77 -64 -61 -86 36 -49 86 32 89 36 54 65 -16 14 -32 25
-35 25 -3 0 -28 -19 -55 -41z"/>
<path d="M3586 3364 c-22 -57 13 -107 72 -102 24 2 36 8 34 16 -2 14 10 8 56
-24 12 -9 22 -14 22 -11 0 9 -157 137 -168 137 -5 0 -13 -7 -16 -16z"/>
<path d="M5110 3369 c-71 -12 -155 -51 -170 -80 -11 -19 -10 -24 6 -36 11 -7
26 -19 34 -26 8 -7 33 -26 55 -42 22 -16 42 -32 45 -35 13 -14 138 -110 143
-110 3 0 18 11 33 25 48 44 44 134 -12 263 -25 58 -27 58 -134 41z"/>
<path d="M886 3344 c-22 -21 -20 -50 3 -66 11 -8 21 -27 23 -43 2 -18 10 -31
20 -33 21 -4 76 35 83 60 3 10 8 27 11 38 4 16 -3 24 -38 40 -52 24 -82 25
-102 4z"/>
<path d="M1446 3314 c-9 -8 -16 -17 -16 -19 0 -10 104 -84 111 -79 15 9 10 82
-7 98 -8 9 -28 16 -44 16 -16 0 -36 -7 -44 -16z"/>
<path d="M3295 3290 c-12 -13 -15 -27 -11 -45 l7 -26 40 32 c32 25 37 34 28
45 -16 20 -43 17 -64 -6z"/>
<path d="M4493 3283 c-3 -10 -13 -26 -21 -35 -17 -21 -10 -24 10 -5 7 7 26 22
42 35 l29 22 -27 0 c-16 0 -29 -7 -33 -17z"/>
<path d="M1361 3277 c-58 -29 -38 -100 36 -130 80 -31 96 -31 117 5 l19 32
-39 34 c-38 33 -94 72 -104 72 -3 0 -16 -6 -29 -13z"/>
<path d="M4687 3279 c-23 -13 -39 -56 -31 -81 3 -11 21 -26 39 -34 19 -7 40
-26 47 -40 19 -39 41 -50 75 -38 41 14 55 48 49 122 -3 35 -8 67 -11 72 -8 13
-145 12 -168 -1z"/>
<path d="M3350 3244 c-25 -19 -46 -39 -47 -42 -2 -4 6 -18 16 -31 17 -22 21
-23 54 -12 41 14 87 53 87 75 0 20 -28 46 -48 46 -9 0 -37 -16 -62 -36z"/>
<path d="M4507 3244 c-53 -41 -57 -51 -24 -59 41 -10 82 9 85 38 2 15 -1 33
-5 42 -8 13 -16 10 -56 -21z"/>
<path d="M2419 3247 c-31 -23 -32 -55 -5 -110 46 -91 46 -92 106 -72 28 9 64
28 80 42 59 49 25 134 -48 120 -21 -4 -33 0 -45 14 -19 21 -64 25 -88 6z"/>
<path d="M1861 3212 c-32 -35 -40 -38 -77 -34 -33 3 -46 -1 -72 -23 -54 -45
-46 -57 99 -163 16 -12 30 -5 129 73 60 48 110 94 110 102 0 8 -15 30 -34 49
-28 28 -41 34 -77 34 -36 0 -47 -6 -78 -38z"/>
<path d="M3120 3230 c-11 -11 -20 -32 -20 -46 0 -16 -10 -34 -25 -46 -16 -12
-25 -29 -25 -46 0 -57 13 -56 103 15 47 37 86 70 86 73 1 3 -8 20 -19 38 -24
38 -68 44 -100 12z"/>
<path d="M4926 3223 c11 -63 52 -96 112 -91 l36 3 -64 51 c-90 69 -90 69 -84
37z"/>
<path d="M4011 3221 c-22 -14 -15 -69 14 -111 24 -35 29 -38 52 -29 85 32 115
77 73 111 -14 11 -31 16 -45 12 -15 -4 -24 0 -28 10 -7 17 -44 21 -66 7z"/>
<path d="M2830 3195 c-5 -14 -14 -25 -19 -25 -20 0 -21 -34 -2 -54 18 -17 24
-18 61 -7 43 13 50 32 30 85 -13 36 -57 36 -70 1z"/>
<path d="M2153 3189 c-19 -19 -16 -56 7 -79 11 -11 20 -29 20 -39 0 -23 25
-51 45 -51 41 0 67 33 79 102 6 33 4 39 -19 54 -34 22 -116 30 -132 13z"/>
<path d="M3774 3192 c-16 -10 -34 -48 -34 -70 0 -23 30 -52 54 -52 9 0 21 -11
25 -23 33 -86 131 -70 131 22 0 35 -5 42 -59 85 -56 43 -92 55 -117 38z"/>
<path d="M3905 3166 c22 -19 41 -33 43 -32 1 2 -1 17 -4 34 -6 29 -10 32 -43
32 l-36 0 40 -34z"/>
<path d="M823 3153 c-3 -10 -15 -28 -26 -40 -38 -42 -11 -44 41 -3 29 23 50
46 46 51 -10 16 -54 10 -61 -8z"/>
<path d="M3445 3141 c-64 -30 -124 -73 -218 -155 -65 -57 -65 -57 -22 -150 25
-54 52 -79 210 -201 29 -22 69 -53 89 -69 36 -29 38 -29 71 -13 79 38 112 130
80 226 l-17 51 41 46 c60 69 67 149 19 220 -53 78 -149 95 -253 45z"/>
<path d="M566 3145 c-27 -28 -19 -60 26 -104 24 -22 47 -41 53 -41 5 0 20 16
33 34 27 40 21 61 -25 94 -43 30 -69 35 -87 17z"/>
<path d="M3163 3096 c-45 -35 -80 -66 -77 -68 12 -13 157 23 169 41 2 5 1 27
-3 49 l-7 42 -82 -64z"/>
<path d="M4339 3139 c-23 -19 -23 -20 -2 -10 12 6 25 16 28 21 10 16 -1 12
-26 -11z"/>
<path d="M4356 3123 c-50 -39 -51 -44 -18 -108 26 -53 53 -85 70 -85 25 0 113
44 140 69 50 49 11 127 -60 118 -25 -3 -38 -1 -42 8 -3 8 -14 18 -24 24 -16 8
-28 4 -66 -26z"/>
<path d="M1164 3140 c-54 -22 -68 -97 -38 -201 23 -77 25 -79 122 -69 87 9
121 24 148 65 33 50 -14 125 -77 125 -23 0 -31 7 -43 35 -20 47 -64 65 -112
45z"/>
<path d="M840 3088 l-45 -41 44 7 c56 9 61 12 61 41 0 38 -13 36 -60 -7z"/>
<path d="M1945 3050 c-55 -44 -100 -82 -100 -85 0 -2 15 -16 34 -30 59 -43 72
-36 118 58 35 70 60 138 51 137 -2 -1 -48 -37 -103 -80z"/>
<path d="M5085 3109 c9 -30 36 -56 71 -69 43 -17 38 -6 -22 45 -48 42 -55 45
-49 24z"/>
<path d="M1517 3092 c-10 -10 -17 -30 -17 -45 0 -15 -8 -30 -19 -36 -10 -6
-24 -23 -30 -40 -11 -24 -10 -33 4 -54 9 -14 27 -28 40 -31 23 -6 140 26 157
42 11 10 -16 126 -35 156 -21 32 -75 36 -100 8z"/>
<path d="M1674 3054 c4 -16 15 -37 24 -47 27 -30 82 -59 99 -53 14 6 12 11
-12 36 -15 16 -32 27 -37 24 -4 -3 -8 -1 -8 4 0 5 -16 22 -36 37 l-37 28 7
-29z"/>
<path d="M4876 3054 c-24 -24 -19 -65 14 -118 34 -53 41 -54 117 -10 50 29 65
65 38 94 -11 12 -31 20 -50 20 -18 0 -38 7 -45 15 -16 20 -54 19 -74 -1z"/>
<path d="M4671 3043 c-12 -8 -21 -21 -21 -29 0 -8 -9 -14 -19 -14 -25 0 -50
-35 -44 -61 8 -29 37 -40 96 -37 l52 3 8 45 c14 79 -23 128 -72 93z"/>
<path d="M2625 3030 c-10 -11 -29 -20 -42 -20 -31 0 -50 -38 -34 -68 9 -18 90
-52 122 -52 9 0 39 87 39 115 0 45 -53 61 -85 25z"/>
<path d="M2812 3030 c-18 -11 -37 -32 -43 -47 -10 -28 -11 -173 0 -173 12 0
193 147 191 156 -2 13 -90 84 -104 84 -6 0 -26 -9 -44 -20z"/>
<path d="M4131 3041 c-32 -9 -36 -23 -11 -46 19 -17 21 -17 60 10 23 16 43 32
46 37 6 9 -60 9 -95 -1z"/>
<path d="M560 3023 c0 -34 19 -48 58 -44 18 1 8 15 -28 41 -28 20 -30 20 -30
3z"/>
<path d="M4202 3002 l-43 -37 23 -20 c54 -47 99 -77 105 -71 9 8 7 119 -2 147
-9 28 -35 23 -83 -19z"/>
<path d="M2321 2994 c-27 -35 -27 -71 -1 -79 12 -4 27 -1 35 5 8 7 22 9 31 6
21 -8 44 11 44 35 0 19 -49 59 -73 59 -9 0 -25 -12 -36 -26z"/>
<path d="M2065 2980 c-25 -28 -22 -68 8 -96 15 -14 23 -30 21 -42 -3 -10 5
-30 17 -45 46 -60 115 -14 138 91 12 57 7 65 -65 92 -68 25 -96 25 -119 0z"/>
<path d="M4080 2977 c0 -31 9 -38 32 -26 21 11 14 33 -9 25 -8 -3 -11 -2 -8 3
3 5 1 12 -5 16 -6 3 -10 -4 -10 -18z"/>
<path d="M715 2972 c-28 -7 -27 -9 80 -95 101 -80 110 -85 113 -63 2 13 -7 54
-20 92 l-23 69 -60 2 c-33 0 -73 -2 -90 -5z"/>
<path d="M5182 2965 c-54 -24 -122 -77 -122 -96 0 -10 5 -29 11 -42 11 -24 12
-24 33 -7 11 10 56 46 99 79 43 34 75 66 72 71 -9 14 -55 12 -93 -5z"/>
<path d="M962 2948 c-19 -19 -14 -56 8 -70 11 -7 20 -22 20 -34 0 -11 9 -29
19 -38 39 -35 78 2 94 91 6 29 3 32 -34 47 -47 19 -90 21 -107 4z"/>
<path d="M600 2937 c-8 -7 -22 -21 -30 -32 -11 -15 -7 -14 15 5 17 14 34 28
40 32 6 5 6 8 0 8 -6 0 -17 -6 -25 -13z"/>
<path d="M601 2902 c-49 -44 -53 -51 -46 -80 9 -43 57 -82 101 -82 29 0 36 -5
54 -40 24 -46 49 -62 102 -64 46 -1 85 33 97 86 8 32 5 37 -33 69 -94 79 -200
159 -210 159 -6 0 -35 -22 -65 -48z"/>
<path d="M1820 2940 c20 -13 33 -13 25 0 -3 6 -14 10 -23 10 -15 0 -15 -2 -2
-10z"/>
<path d="M4121 2937 c-12 -16 -5 -27 18 -27 9 0 23 -15 31 -33 12 -25 22 -33
49 -35 58 -6 54 12 -13 61 -35 26 -66 47 -69 47 -2 0 -10 -6 -16 -13z"/>
<path d="M5195 2870 c-55 -43 -101 -83 -103 -89 -6 -18 47 -90 78 -106 35 -18
64 -13 98 18 18 17 22 30 21 67 -2 38 2 50 24 72 34 34 38 92 8 108 -11 5 -21
10 -23 10 -2 -1 -48 -36 -103 -80z"/>
<path d="M2870 2864 c-88 -71 -95 -79 -92 -108 2 -17 9 -34 15 -38 22 -14 206
-9 242 6 67 29 93 119 45 157 -91 73 -99 72 -210 -17z"/>
<path d="M3865 2890 c-33 -17 -70 -39 -83 -48 l-23 -18 21 -57 c14 -38 26 -55
33 -50 10 6 203 158 217 170 3 3 -4 11 -14 19 -31 22 -87 17 -151 -16z"/>
<path d="M2386 2866 c-45 -17 -110 -77 -127 -118 -11 -26 -15 -28 -48 -22 -20
3 -44 8 -53 11 -10 2 -18 0 -18 -6 0 -6 4 -11 8 -11 5 0 17 -8 28 -18 24 -22
205 -165 221 -175 7 -4 61 32 133 89 112 89 121 99 115 123 -24 96 -160 163
-259 127z"/>
<path d="M4430 2858 c-18 -13 -39 -32 -46 -43 -12 -19 -9 -24 44 -65 31 -25
64 -50 72 -57 127 -103 217 -173 224 -173 16 0 122 117 140 155 34 71 3 155
-70 190 -42 20 -91 14 -140 -16 l-32 -19 -43 25 c-55 31 -106 32 -149 3z"/>
<path d="M3994 2837 c-21 -17 -44 -36 -50 -42 -6 -5 -39 -30 -72 -55 -34 -25
-61 -47 -62 -50 0 -3 14 -22 31 -43 26 -31 36 -37 70 -37 59 0 93 37 87 94 -4
36 -1 46 23 71 28 27 39 77 21 89 -5 3 -26 -9 -48 -27z"/>
<path d="M1355 2847 c-17 -8 -44 -30 -61 -49 -23 -26 -35 -33 -50 -27 -33 13
-94 10 -129 -7 -18 -8 -41 -31 -51 -50 l-19 -36 30 -24 c17 -13 63 -50 103
-80 l72 -56 145 116 c80 64 145 118 145 121 0 18 -27 54 -54 73 -42 29 -93 36
-131 19z"/>
<path d="M1822 2853 c-7 -3 -19 -17 -26 -32 -17 -32 -3 -82 38 -136 31 -40 45
-42 101 -16 56 26 85 57 85 89 0 46 -22 67 -69 65 -30 -1 -48 4 -62 18 -18 18
-41 23 -67 12z"/>
<path d="M1607 2822 c-10 -10 -17 -22 -17 -26 0 -9 49 27 50 37 0 13 -17 7
-33 -11z"/>
<path d="M1632 2802 c-35 -29 -40 -47 -17 -56 8 -3 15 -17 15 -30 0 -14 9 -31
21 -39 42 -30 78 4 93 86 7 36 5 38 -28 52 -46 19 -45 19 -84 -13z"/>
<path d="M4360 2745 c0 -79 71 -164 246 -297 6 -4 29 6 57 25 l46 33 -121 94
c-66 52 -141 112 -167 133 -54 44 -61 45 -61 12z"/>
<path d="M4994 2745 c-10 -8 -14 -15 -8 -15 6 0 17 7 24 15 16 19 9 19 -16 0z"/>
<path d="M4132 2730 c-24 -23 -39 -72 -44 -145 l-3 -49 49 -18 c26 -10 71 -19
99 -20 60 -1 87 23 87 78 0 29 -6 38 -35 55 -27 16 -35 27 -35 50 0 59 -74 90
-118 49z"/>
<path d="M4982 2702 c-62 -55 -57 -72 19 -72 l48 0 7 46 c5 33 3 49 -7 59 -12
12 -22 6 -67 -33z"/>
<path d="M1464 2668 c-44 -35 -107 -85 -142 -111 l-62 -48 62 -50 c35 -27 66
-49 70 -49 10 0 80 104 111 167 25 49 52 141 44 150 -3 2 -40 -25 -83 -59z"/>
<path d="M2054 2716 c-76 -34 -128 -148 -104 -234 15 -56 75 -121 139 -151
l49 -24 99 77 c54 42 111 87 127 100 l28 23 -37 29 c-21 16 -65 52 -99 79
-152 126 -149 124 -202 101z"/>
<path d="M3276 2700 c28 -48 90 -116 127 -139 18 -10 50 -22 72 -26 l40 -6
-35 31 c-37 33 -185 150 -209 164 -9 6 -8 -2 5 -24z"/>
<path d="M4940 2700 c-9 -6 -10 -10 -3 -10 6 0 15 5 18 10 8 12 4 12 -15 0z"/>
<path d="M932 2678 c-7 -7 -12 -18 -12 -25 0 -6 -7 -16 -16 -21 -21 -12 -14
-56 9 -60 11 -2 34 -1 53 3 32 5 34 8 34 45 0 56 -38 88 -68 58z"/>
<path d="M2535 2599 c-60 -49 -109 -91 -108 -94 2 -4 77 -66 131 -108 9 -7 18
5 36 46 40 89 77 248 59 246 -5 0 -57 -41 -118 -90z"/>
<path d="M604 2656 c-3 -14 -12 -27 -20 -30 -18 -7 -18 -40 1 -56 9 -8 28 -10
55 -5 38 6 40 9 40 42 0 47 -16 73 -45 73 -18 0 -26 -7 -31 -24z"/>
<path d="M1040 2632 c0 -40 37 -91 94 -130 44 -29 51 -31 69 -19 12 8 22 18
23 23 2 8 -62 62 -162 137 l-24 19 0 -30z"/>
<path d="M2726 2634 c-9 -8 -16 -23 -16 -32 0 -23 58 -122 71 -122 20 0 84 32
106 52 45 42 14 106 -45 93 -22 -4 -31 -2 -35 9 -8 21 -61 21 -81 0z"/>
<path d="M3155 2635 c-164 -51 -229 -143 -155 -217 28 -27 36 -30 77 -25 40 4
48 2 72 -24 39 -42 99 -43 137 -1 40 42 31 110 -27 203 -24 40 -48 74 -54 75
-5 1 -28 -4 -50 -11z"/>
<path d="M1586 2598 c-9 -12 -16 -26 -16 -31 0 -4 -12 -18 -26 -31 -20 -17
-25 -28 -20 -44 12 -37 42 -46 104 -32 l54 12 -4 56 c-4 42 -10 60 -28 74 -29
24 -46 23 -64 -4z"/>
<path d="M5119 2593 c-24 -20 -41 -26 -68 -24 -54 3 -86 -25 -86 -77 0 -47 23
-71 100 -106 92 -42 97 -42 133 14 63 96 72 159 28 197 -36 30 -67 29 -107 -4z"/>
<path d="M757 2585 c-21 -7 -63 -29 -93 -49 -49 -33 -54 -39 -48 -64 12 -48
50 -126 78 -159 61 -72 169 -20 152 72 -6 28 -2 38 24 63 16 17 30 40 30 51 0
34 -22 72 -51 87 -34 17 -43 17 -92 -1z"/>
<path d="M3666 2564 c-9 -8 -16 -19 -16 -24 0 -4 -11 -11 -24 -14 -39 -10 -37
-31 7 -65 51 -39 102 -43 111 -8 10 37 7 102 -6 115 -17 17 -54 15 -72 -4z"/>
<path d="M3836 2489 c-15 -12 -26 -30 -26 -45 0 -29 33 -64 60 -64 11 0 20 -7
20 -15 0 -22 45 -65 68 -65 11 0 30 8 43 19 20 16 23 27 22 90 -1 40 -7 78
-13 86 -20 24 -141 20 -174 -6z"/>
<path d="M2283 2401 c-67 -53 -122 -99 -122 -102 -2 -12 251 -79 299 -79 13 0
30 20 54 63 19 34 37 69 41 78 5 13 -42 57 -135 125 -12 9 -39 -8 -137 -85z"/>
<path d="M966 2468 c-21 -30 -19 -55 7 -106 l23 -43 83 65 c63 49 80 67 67 72
-9 3 -27 3 -40 0 -16 -4 -29 0 -41 14 -25 28 -79 27 -99 -2z"/>
<path d="M1221 2476 c-15 -17 -10 -21 65 -46 72 -25 88 -25 49 -1 -16 10 -39
28 -49 40 -22 24 -48 27 -65 7z"/>
<path d="M3410 2449 c-29 -31 -46 -66 -37 -75 6 -6 107 74 107 85 0 8 -23 21
-36 21 -2 0 -17 -14 -34 -31z"/>
<path d="M3607 2449 c12 -12 25 -20 28 -17 3 3 -7 13 -22 23 l-28 17 22 -23z"/>
<path d="M2649 2447 c-20 -16 -39 -51 -39 -74 0 -10 25 -38 57 -63 109 -87
133 -102 156 -96 35 9 94 63 101 92 16 62 -51 126 -109 104 -23 -9 -30 -6 -55
20 -30 32 -81 40 -111 17z"/>
<path d="M4259 2447 c-15 -7 -50 -28 -78 -47 -48 -32 -52 -38 -46 -65 10 -53
62 -153 89 -170 24 -16 27 -16 58 6 62 42 85 69 81 92 -3 15 4 30 21 46 19 18
26 35 26 63 0 74 -73 110 -151 75z"/>
<path d="M3442 2400 c-34 -28 -60 -55 -57 -61 8 -12 52 -12 60 2 4 6 19 7 37
4 21 -5 35 -2 49 11 25 22 24 37 -3 69 l-23 26 -63 -51z"/>
<path d="M4837 2443 c-14 -4 -2 -17 50 -59 37 -29 69 -49 71 -44 4 12 -17 81
-31 98 -9 12 -54 14 -90 5z"/>
<path d="M1093 2374 c-54 -43 -80 -70 -76 -80 7 -19 19 -18 73 7 56 25 100 66
100 93 -1 48 -15 45 -97 -20z"/>
<path d="M1627 2427 c-74 -23 -106 -82 -77 -138 13 -24 67 -52 86 -45 9 4 19
-4 26 -22 27 -64 94 -81 145 -38 24 21 28 31 27 78 0 29 -9 81 -19 116 l-18
62 -66 -1 c-36 0 -83 -6 -104 -12z"/>
<path d="M4732 2419 c-68 -34 -81 -91 -33 -140 20 -19 40 -29 60 -29 24 0 32
-5 37 -24 9 -38 41 -61 86 -61 52 0 88 38 88 94 0 35 -5 42 -89 109 -48 40
-92 72 -97 72 -5 0 -28 -10 -52 -21z"/>
<path d="M3647 2379 c-11 -6 -25 -26 -33 -44 -10 -25 -21 -34 -48 -39 -42 -8
-66 -38 -66 -83 0 -61 60 -93 176 -93 40 0 66 5 73 14 6 7 17 51 23 96 l12 82
-41 39 c-43 40 -65 46 -96 28z"/>
<path d="M4490 2360 c-33 -33 -23 -43 15 -14 19 14 35 28 35 30 0 12 -33 1
-50 -16z"/>
<path d="M4529 2343 c-86 -71 -109 -97 -109 -123 0 -61 63 -77 156 -42 l49 18
-3 49 c-2 50 -28 116 -48 122 -6 2 -26 -9 -45 -24z"/>
<path d="M1198 2329 c-10 -5 -18 -19 -18 -29 0 -13 -7 -20 -19 -20 -18 0 -51
-34 -51 -52 0 -5 9 -17 20 -28 15 -15 33 -20 74 -20 61 0 66 5 69 81 1 32 -4
45 -22 60 -27 22 -30 22 -53 8z"/>
<path d="M862 2314 c-14 -9 -22 -26 -22 -44 0 -18 -11 -39 -30 -58 -29 -29
-39 -52 -22 -52 4 0 38 25 77 56 38 31 77 60 85 65 13 8 11 12 -9 29 -28 24
-49 25 -79 4z"/>
<path d="M2641 2278 c47 -92 71 -110 123 -89 16 6 8 17 -57 69 -41 34 -78 62
-81 62 -4 0 3 -19 15 -42z"/>
<path d="M1910 2280 c-28 -28 -25 -69 8 -100 l27 -26 58 45 c32 25 61 49 63
53 7 12 -75 48 -108 48 -16 0 -37 -9 -48 -20z"/>
<path d="M3215 2285 c-56 -15 -95 -53 -95 -92 0 -19 3 -23 13 -16 6 6 42 34
80 62 87 68 87 69 2 46z"/>
<path d="M3270 2264 c-25 -19 -46 -40 -48 -45 -2 -5 -9 -9 -15 -9 -7 0 -27
-15 -46 -32 l-35 -31 23 -18 c12 -10 38 -21 56 -25 21 -4 37 -13 40 -25 26
-82 150 -76 171 7 8 32 -1 105 -22 167 -14 43 -18 47 -47 47 -21 0 -47 -12
-77 -36z"/>
<path d="M5017 2294 c-3 -4 15 -23 41 -44 43 -34 49 -36 65 -22 20 18 22 47 5
58 -16 10 -103 16 -111 8z"/>
<path d="M905 2227 c-28 -23 -66 -53 -84 -67 -32 -24 -33 -27 -17 -43 23 -23
63 -21 131 4 53 20 55 22 54 57 -1 47 -12 85 -24 88 -6 1 -33 -16 -60 -39z"/>
<path d="M1340 2242 c-14 -11 -22 -29 -22 -47 0 -29 31 -65 58 -65 7 0 16 -11
20 -25 7 -29 39 -55 67 -55 10 0 30 12 44 26 24 24 25 31 21 93 -3 38 -8 73
-12 80 -4 6 -37 11 -80 11 -56 0 -79 -4 -96 -18z"/>
<path d="M5018 2243 c18 -32 52 -57 63 -46 7 7 -3 19 -31 37 -32 21 -39 23
-32 9z"/>
<path d="M2074 2237 c-14 -15 -49 -44 -97 -80 -20 -15 -37 -34 -37 -41 0 -33
65 -59 96 -38 19 12 51 84 59 130 7 42 0 52 -21 29z"/>
<path d="M3848 2185 c-20 -14 -48 -44 -62 -67 l-25 -42 -75 -1 c-68 0 -78 -3
-113 -31 -80 -64 -88 -188 -17 -260 36 -36 102 -74 129 -74 15 0 40 17 175
124 187 148 260 210 258 217 -7 18 -195 159 -213 159 -11 0 -37 -11 -57 -25z"/>
<path d="M3960 2207 c0 -4 120 -101 137 -111 20 -11 4 25 -26 57 -29 32 -71
57 -96 57 -8 0 -15 -1 -15 -3z"/>
<path d="M4315 2174 c-39 -34 -39 -34 -10 -24 27 9 62 46 53 55 -2 2 -21 -12
-43 -31z"/>
<path d="M2215 2179 c-28 -14 -70 -76 -95 -140 l-22 -54 39 -33 c102 -87 195
-102 234 -39 22 36 19 67 -12 106 -17 21 -19 34 -14 68 6 39 3 46 -24 73 -31
31 -68 38 -106 19z"/>
<path d="M2516 2168 c-9 -12 -16 -33 -16 -46 0 -14 -11 -33 -25 -44 -29 -23
-34 -68 -9 -92 9 -10 33 -16 58 -16 52 0 136 35 136 56 0 33 -24 110 -42 137
-25 35 -79 38 -102 5z"/>
<path d="M2950 2135 l-23 -25 23 -25 c13 -14 27 -25 31 -25 4 0 25 15 48 34
l40 34 -42 16 c-53 20 -49 21 -77 -9z"/>
<path d="M4690 2140 c-26 -26 -25 -33 7 -92 24 -44 30 -49 52 -43 36 9 82 37
94 57 8 12 8 24 -1 42 -9 20 -19 26 -44 26 -18 0 -42 7 -52 15 -26 19 -32 19
-56 -5z"/>
<path d="M1195 2131 c-11 -5 -29 -19 -40 -31 -26 -28 -25 -112 1 -190 l19 -55
68 2 c91 3 142 18 166 50 46 58 8 143 -63 143 -28 0 -35 5 -40 25 -4 14 -21
34 -39 45 -35 22 -42 23 -72 11z"/>
<path d="M2763 2133 c-7 -2 -13 -13 -13 -23 0 -9 -10 -24 -21 -32 -16 -10 -20
-20 -15 -36 6 -17 15 -22 42 -22 59 0 76 15 68 58 -10 56 -26 70 -61 55z"/>
<path d="M3043 2086 c-23 -17 -42 -33 -42 -36 0 -3 34 -32 76 -65 42 -33 103
-82 136 -108 66 -52 77 -50 77 15 0 67 -33 115 -121 175 -79 54 -79 54 -126
19z"/>
<path d="M4430 2092 c-30 -25 -29 -70 4 -126 39 -66 47 -71 103 -52 63 22 103
61 103 102 0 39 -38 69 -76 60 -17 -5 -33 0 -51 14 -32 25 -54 25 -83 2z"/>
<path d="M2904 2086 c-55 -62 -130 -187 -102 -170 10 6 146 112 166 129 1 1
-11 13 -26 27 -19 17 -31 21 -38 14z"/>
<path d="M1724 2064 c-20 -19 -24 -31 -19 -52 4 -15 8 -29 10 -31 2 -2 24 12
49 30 l46 33 -22 23 c-27 29 -33 29 -64 -3z"/>
<path d="M4197 2072 c-10 -10 -17 -25 -17 -33 0 -14 93 -89 110 -89 18 0 70
52 70 70 0 24 -36 49 -60 43 -11 -3 -27 2 -35 11 -22 21 -48 20 -68 -2z"/>
<path d="M1854 2053 c-7 -5 6 -22 37 -46 47 -37 49 -37 49 -15 0 13 -6 31 -13
40 -15 20 -57 31 -73 21z"/>
<path d="M1522 2034 c-28 -19 -28 -59 -2 -102 27 -44 42 -48 95 -22 70 34 75
104 7 106 -17 0 -36 5 -44 11 -27 21 -35 22 -56 7z"/>
<path d="M942 2020 c-16 -27 -15 -36 7 -57 10 -10 21 -30 25 -45 15 -66 82
-53 104 20 18 60 15 72 -23 88 -50 20 -98 18 -113 -6z"/>
<path d="M2913 1982 c-38 -32 -84 -68 -101 -81 -36 -27 -40 -52 -18 -105 38
-92 159 -111 231 -36 26 28 29 28 56 15 40 -21 108 -19 147 5 19 11 32 26 29
33 -2 6 -64 60 -139 118 l-135 107 -70 -56z"/>
<path d="M1772 1992 l-44 -37 19 -33 c30 -53 77 -52 152 5 l33 26 -43 38 c-24
21 -51 38 -59 39 -8 0 -35 -17 -58 -38z"/>
<path d="M4054 1967 c-29 -23 -113 -89 -187 -147 -75 -58 -138 -110 -141 -117
-6 -15 126 -46 204 -47 l55 -1 37 70 c48 91 110 285 91 285 -5 0 -31 -19 -59
-43z"/>
<path d="M4215 1966 c10 -14 24 -26 31 -26 20 0 18 3 -17 29 l-31 23 17 -26z"/>
<path d="M4785 1959 c-4 -5 -4 -22 1 -37 4 -15 7 -35 8 -46 1 -10 9 -24 18
-29 20 -13 55 13 70 52 7 21 4 28 -19 47 -30 25 -68 31 -78 13z"/>
<path d="M2420 1893 c-11 -14 -31 -31 -43 -37 -24 -12 -33 -52 -18 -75 11 -17
125 -28 134 -14 3 5 9 32 13 60 5 44 3 54 -15 72 -28 28 -45 27 -71 -6z"/>
<path d="M4620 1911 c-58 -18 -173 -92 -160 -103 3 -3 53 -44 113 -92 l107
-87 10 25 c5 15 7 39 4 55 -5 22 0 34 20 54 67 67 -3 176 -94 148z"/>
<path d="M2030 1897 c0 -4 127 -97 133 -97 14 0 15 36 1 57 -12 19 -22 24 -42
20 -15 -3 -31 1 -39 9 -12 12 -53 20 -53 11z"/>
<path d="M2006 1883 c-23 -23 26 -133 60 -133 24 0 75 30 69 40 -12 19 -123
99 -129 93z"/>
<path d="M4180 1833 c-40 -50 -73 -119 -73 -155 0 -66 95 -106 138 -58 14 15
29 19 68 18 43 -2 52 1 73 25 33 39 32 86 -4 120 -22 21 -148 87 -166 87 -3 0
-18 -17 -36 -37z"/>
<path d="M1422 1833 c-33 -6 -55 -46 -47 -83 4 -16 11 -30 17 -30 9 0 148 110
148 117 0 4 -91 1 -118 -4z"/>
<path d="M1189 1811 c-13 -10 -32 -33 -42 -50 l-18 -30 41 -41 c46 -46 82 -51
106 -15 11 17 11 25 0 45 -9 18 -10 32 -3 47 8 18 6 27 -8 43 -23 25 -46 25
-76 1z"/>
<path d="M1492 1774 c-70 -53 -86 -74 -58 -74 7 0 19 -14 26 -30 23 -57 101
-53 120 5 11 33 6 114 -9 142 -4 8 -30 -6 -79 -43z"/>
<path d="M2581 1813 c-17 -14 -22 -27 -19 -52 l3 -33 50 38 c28 20 52 39 54
41 8 6 -5 13 -35 19 -21 4 -37 0 -53 -13z"/>
<path d="M1775 1801 c-48 -22 -69 -44 -90 -94 -21 -50 -19 -83 10 -174 23 -72
109 -239 141 -272 12 -13 24 -12 91 3 74 18 84 24 215 128 76 60 142 118 148
128 20 37 -27 132 -81 164 -35 21 -104 26 -156 13 -29 -8 -34 -6 -42 15 -12
31 -69 84 -104 97 -41 16 -87 13 -132 -8z"/>
<path d="M2637 1761 c-73 -55 -97 -119 -59 -154 42 -38 114 -5 167 77 16 24
16 27 -3 53 -11 15 -28 35 -38 44 -18 16 -22 15 -67 -20z"/>
<path d="M3363 1774 c-13 -6 176 -161 190 -156 5 1 6 -2 2 -8 -11 -17 9 -10
38 14 24 19 27 26 18 49 -15 39 -54 61 -98 54 -31 -5 -42 -2 -63 18 -26 24
-66 38 -87 29z"/>
<path d="M4476 1748 c13 -44 47 -103 71 -126 19 -18 34 -22 66 -20 22 2 42 8
44 15 2 6 -22 31 -53 55 -31 23 -71 55 -89 71 -40 33 -49 34 -39 5z"/>
<path d="M3316 1738 c-9 -12 -16 -36 -16 -53 0 -37 38 -119 77 -164 33 -39 40
-37 125 30 l48 38 -97 77 c-54 42 -103 81 -110 86 -7 6 -17 1 -27 -14z"/>
<path d="M3112 1704 c-30 -20 -28 -60 4 -108 22 -32 30 -37 52 -31 53 13 92
45 92 75 0 33 -22 54 -50 47 -11 -3 -29 3 -41 14 -27 23 -29 23 -57 3z"/>
<path d="M2393 1637 c-21 -12 -22 -13 -4 -24 14 -9 23 -7 47 13 l29 23 -25 0
c-14 0 -35 -5 -47 -12z"/>
<path d="M2803 1633 c-3 -10 -15 -28 -27 -41 -30 -34 -11 -58 44 -55 57 3 65
12 54 65 -8 37 -13 43 -37 46 -19 2 -29 -2 -34 -15z"/>
<path d="M3684 1640 c-30 -12 -35 -42 -14 -87 25 -57 43 -68 82 -53 46 18 78
50 78 76 0 27 -33 48 -61 41 -10 -3 -21 -1 -25 4 -10 18 -39 27 -60 19z"/>
<path d="M2453 1617 c-18 -12 -33 -24 -33 -27 0 -11 64 -49 72 -44 17 11 25
49 15 72 -12 27 -13 27 -54 -1z"/>
<path d="M2334 1614 c-11 -5 -7 -64 5 -64 3 1 17 10 30 21 23 19 23 20 5 34
-20 15 -23 16 -40 9z"/>
<path d="M4456 1604 c-13 -12 -14 -20 -4 -37 6 -12 12 -33 12 -47 1 -20 7 -26
28 -28 22 -3 32 3 48 30 24 40 23 47 -20 76 -39 26 -44 27 -64 6z"/>
<path d="M3590 1600 c-8 -5 -11 -12 -7 -16 4 -4 13 -2 19 4 15 15 7 24 -12 12z"/>
<path d="M2956 1579 c-16 -13 -26 -30 -26 -47 0 -16 -10 -34 -26 -47 -51 -41
-23 -115 42 -115 18 0 59 9 90 21 l56 21 -7 37 c-13 72 -25 107 -45 129 -26
28 -50 28 -84 1z"/>
<path d="M3902 1570 c-14 -13 -22 -33 -22 -54 0 -20 -8 -40 -20 -51 -29 -26
-23 -72 12 -98 26 -20 28 -20 75 -2 26 10 61 27 76 38 24 16 27 24 21 51 -9
41 -43 108 -63 123 -24 18 -55 15 -79 -7z"/>
<path d="M2369 1550 c-33 -27 -33 -29 -19 -56 22 -39 43 -50 77 -38 23 8 29
16 31 46 3 30 -2 39 -26 56 l-29 21 -34 -29z"/>
<path d="M3525 1550 c-45 -36 -35 -39 19 -6 21 13 34 26 29 29 -6 4 -28 -7
-48 -23z"/>
<path d="M1421 1551 c-7 -5 -10 -14 -7 -20 5 -7 2 -10 -6 -9 -7 2 -14 -6 -15
-17 -2 -14 18 -36 72 -78 73 -57 75 -58 98 -41 36 28 77 85 77 109 0 46 -77
84 -108 53 -9 -9 -18 -9 -37 0 -31 14 -55 15 -74 3z"/>
<path d="M2575 1540 c-12 -4 -26 -14 -33 -23 -11 -12 6 -29 103 -106 124 -99
136 -103 175 -54 54 68 -6 155 -95 139 -27 -5 -37 -3 -41 9 -7 17 -55 45 -76
44 -7 0 -22 -4 -33 -9z"/>
<path d="M4174 1530 c-29 -11 -64 -58 -64 -84 0 -46 90 -196 117 -196 28 0
119 50 161 89 51 47 55 82 16 124 -23 25 -32 28 -74 25 -38 -2 -53 1 -72 18
-29 27 -57 35 -84 24z"/>
<path d="M3578 1519 c-10 -5 -18 -20 -18 -33 0 -15 -7 -26 -20 -29 -45 -12
-38 -81 9 -90 42 -9 116 15 115 36 0 9 -1 33 -2 52 -2 35 -31 75 -54 75 -7 0
-21 -5 -30 -11z"/>
<path d="M3246 1471 c-24 -25 -35 -44 -31 -52 5 -8 4 -10 -4 -5 -17 11 -44
-60 -34 -89 8 -23 11 -21 103 51 52 42 96 79 98 83 3 7 -69 51 -85 51 -5 0
-26 -18 -47 -39z"/>
<path d="M2245 1454 c-16 -14 -63 -50 -103 -81 -40 -30 -71 -57 -69 -60 3 -2
30 7 60 21 61 27 142 95 150 126 7 26 -2 25 -38 -6z"/>
<path d="M2520 1454 c0 -30 63 -154 91 -179 17 -17 22 -16 79 5 33 12 60 23
60 25 0 4 -218 175 -224 175 -3 0 -6 -12 -6 -26z"/>
<path d="M1416 1437 c9 -23 104 -96 104 -80 0 5 -25 28 -55 51 -30 24 -52 37
-49 29z"/>
<path d="M3316 1384 c-44 -36 -89 -72 -100 -80 -18 -12 -19 -16 -6 -24 23 -15
63 -12 88 6 19 13 28 13 58 4 29 -10 39 -9 60 5 29 19 47 59 38 87 -5 15 -50
69 -57 67 -1 0 -38 -30 -81 -65z"/>
<path d="M1656 1329 c-15 -17 -26 -32 -24 -33 2 -1 25 -19 51 -40 26 -21 51
-36 54 -33 3 3 8 27 11 52 3 35 0 50 -13 65 -25 28 -47 25 -79 -11z"/>
<path d="M2300 1303 c-62 -24 -81 -103 -35 -148 13 -14 30 -25 38 -25 9 0 17
-15 21 -39 12 -76 97 -107 149 -55 29 29 47 97 47 179 l0 54 -49 15 c-58 17
-150 28 -171 19z"/>
<path d="M2939 1290 c-39 -21 -63 -44 -57 -59 1 -5 25 -27 52 -49 l49 -41 78
61 c44 33 77 64 74 68 -11 18 -76 40 -117 40 -23 -1 -59 -9 -79 -20z"/>
<path d="M1596 1284 c-19 -51 1 -73 75 -80 l54 -5 -35 31 c-19 17 -47 40 -61
51 -24 17 -28 17 -33 3z"/>
<path d="M3778 1282 c-19 -10 -56 -32 -81 -48 -53 -33 -53 -38 -7 -141 38 -84
60 -103 114 -103 61 0 90 35 83 98 -3 32 -1 45 10 49 17 7 43 55 43 82 0 11
-12 33 -26 50 -31 37 -79 41 -136 13z"/>
<path d="M3075 1194 c-38 -31 -71 -59 -72 -63 -1 -3 25 -26 58 -51 34 -25 71
-53 83 -63 21 -18 21 -18 33 10 24 59 26 129 4 178 -11 25 -24 45 -28 45 -4 0
-39 -26 -78 -56z"/>
<path d="M4027 1244 c-3 -3 22 -28 55 -55 34 -27 63 -47 65 -45 7 6 -23 58
-47 84 -19 21 -59 30 -73 16z"/>
<path d="M3461 1226 c-13 -7 -30 -24 -37 -37 -10 -20 -20 -24 -61 -24 -63 0
-99 -23 -114 -74 -23 -78 23 -130 151 -170 116 -36 118 -36 161 44 72 131 73
214 5 256 -36 22 -71 24 -105 5z"/>
<path d="M4003 1190 c4 -17 0 -40 -8 -56 -10 -20 -11 -32 -3 -50 15 -33 37
-30 92 12 l46 37 -22 15 c-13 9 -38 28 -56 44 -42 36 -56 36 -49 -2z"/>
<path d="M2854 1195 c-5 -12 -17 -14 -58 -9 -159 19 -262 -114 -196 -252 36
-73 30 -76 248 100 l122 98 -49 39 c-55 44 -59 45 -67 24z"/>
<path d="M2028 1173 c-15 -15 -22 -15 -58 -3 -47 16 -85 7 -106 -26 -13 -19
-7 -25 94 -106 l107 -86 24 22 c38 33 81 107 81 138 0 63 -98 105 -142 61z"/>
<path d="M2904 1058 c-44 -35 -81 -65 -84 -68 -3 -3 -40 -31 -83 -64 -71 -54
-76 -60 -59 -72 38 -26 133 -63 214 -82 152 -37 144 -37 175 11 14 23 42 76
61 117 l35 75 -48 42 c-27 23 -67 56 -91 72 l-42 31 -78 -62z"/>
<path d="M4105 1094 c-18 -16 -22 -22 -9 -15 18 9 53 42 43 41 -2 -1 -17 -12
-34 -26z"/>
<path d="M1844 1084 c3 -9 6 -19 6 -24 0 -16 92 -98 136 -122 34 -18 46 -20
56 -10 6 6 10 13 7 15 -2 2 -26 21 -54 44 -76 62 -144 113 -151 113 -3 0 -3
-7 0 -16z"/>
<path d="M3714 936 c-16 -13 -17 -18 -6 -35 6 -12 12 -31 12 -44 0 -13 3 -27
7 -30 6 -7 71 37 85 57 9 13 -8 34 -43 52 -34 17 -31 17 -55 0z"/>
<path d="M2224 932 c-34 -3 -70 -34 -60 -51 13 -20 159 -134 174 -135 9 -1 19
12 24 29 11 38 0 145 -16 150 -21 6 -91 11 -122 7z"/>
<path d="M2471 904 c-19 -14 -22 -23 -18 -50 3 -19 1 -36 -4 -39 -14 -9 -11
-51 6 -65 12 -10 24 -5 70 29 30 23 55 48 55 56 0 15 -62 85 -76 85 -5 0 -20
-7 -33 -16z"/>
<path d="M3198 905 c-48 -26 -53 -87 -13 -166 13 -25 36 -60 50 -77 l26 -31
64 23 c61 22 135 68 135 84 0 8 -213 175 -228 179 -4 1 -19 -4 -34 -12z"/>
<path d="M3365 842 c62 -57 102 -83 108 -69 7 20 -19 74 -42 86 -11 6 -37 11
-58 11 l-38 0 30 -28z"/>
<path d="M2159 838 c4 -13 21 -27 39 -32 21 -7 35 -19 41 -37 10 -30 43 -52
69 -47 11 2 -7 22 -58 64 -97 78 -102 81 -91 52z"/>
<path d="M3549 824 c-18 -22 -20 -111 -2 -125 14 -12 46 3 91 44 28 26 28 28
-8 66 -33 34 -61 39 -81 15z"/>
<path d="M2540 769 c-35 -31 -35 -31 -3 -9 18 11 35 25 38 30 10 16 2 11 -35
-21z"/>
<path d="M2621 751 c-14 -12 -25 -36 -28 -59 -4 -29 -14 -46 -34 -61 -16 -12
-29 -27 -28 -34 0 -7 27 -34 60 -61 l60 -49 42 13 c81 24 97 37 97 78 0 51
-25 133 -51 166 -26 33 -84 36 -118 7z"/>
<path d="M3626 714 c-25 -19 -44 -40 -40 -45 7 -12 61 27 82 59 20 30 12 28
-42 -14z"/>
<path d="M2963 680 c-12 -5 -24 -18 -27 -28 -4 -11 -18 -23 -31 -26 -33 -8
-44 -50 -20 -76 14 -16 31 -20 76 -20 l58 0 6 43 c4 24 5 54 3 67 -4 30 -37
51 -65 40z"/>
<path d="M3144 608 c-32 -15 -46 -52 -32 -83 8 -19 8 -31 0 -50 -18 -40 -14
-62 14 -84 15 -12 30 -21 34 -21 10 0 134 99 138 110 10 26 -72 122 -113 133
-11 3 -30 1 -41 -5z"/>
<path d="M2527 540 c7 -26 50 -60 74 -60 29 0 23 12 -25 48 -50 38 -56 39 -49
12z"/>
<path d="M2815 394 c-20 -15 -19 -16 15 -46 48 -41 148 -118 153 -118 8 0 43
35 60 60 51 75 -14 147 -98 108 -19 -9 -28 -9 -37 0 -17 17 -69 14 -93 -4z"/>
<path d="M2790 328 c0 -24 110 -138 133 -138 7 0 21 6 31 13 18 13 17 15 -15
37 -19 13 -57 43 -86 67 -28 24 -54 43 -57 43 -3 0 -6 -10 -6 -22z"/>
<path d="M0 15 c0 -8 7 -15 16 -15 14 0 14 3 4 15 -16 19 -20 19 -20 0z"/>
</g>
</svg>
